<?xml version="1.0" standalone="no"?>
<!DOCTYPE svg PUBLIC "-//W3C//DTD SVG 20010904//EN"
 "http://www.w3.org/TR/2001/REC-SVG-20010904/DTD/svg10.dtd">
<svg version="1.0" xmlns="http://www.w3.org/2000/svg"
 width="225.000000pt" height="225.000000pt" viewBox="0 0 225.000000 225.000000"
 preserveAspectRatio="xMidYMid meet">
<metadata>
Created by potrace 1.14, written by Peter Selinger 2001-2017
</metadata>
<g transform="translate(0.000000,225.000000) scale(0.100000,-0.100000)"
fill="#000000" stroke="none">
<path d="M369 1184 c-10 -13 -8 -29 14 -97 73 -225 245 -421 464 -531 100 -50
231 -86 338 -93 100 -6 123 4 111 51 -7 27 -30 36 -101 36 -75 0 -210 36 -300
80 -145 70 -252 165 -341 302 -42 64 -104 201 -104 230 0 36 -56 51 -81 22z"/>
</g>
</svg>
